<?xml version="1.0" encoding="iso-8859-1"?>
<!-- Uploaded to: SVG Repo, www.svgrepo.com, Generator: SVG Repo Mixer Tools -->
<svg fill="#000000" height="800px" width="800px" version="1.1" id="Layer_1" xmlns="http://www.w3.org/2000/svg" xmlns:xlink="http://www.w3.org/1999/xlink" 
	 viewBox="0 0 330 330" xml:space="preserve">
<g id="XMLID_91_">
	<g id="XMLID_92_">
		<path id="XMLID_93_" d="M308.626,70.576c-3.78-2.842-8.677-3.735-13.216-2.41c-8.328,2.43-16.824,3.662-25.251,3.662
			c-24.194,0-48.153-7.087-65.733-19.446C188.903,41.471,180,27.845,180,15c0-8.284-6.716-15-15-15c-8.284,0-15,6.716-15,15
			c0,12.845-8.903,26.471-24.425,37.383c-17.58,12.358-41.538,19.445-65.732,19.445c-8.428,0-16.924-1.232-25.251-3.662
			c-4.541-1.325-9.437-0.431-13.216,2.41c-3.779,2.842-5.997,7.299-5.986,12.027c0.203,79.771,35.262,142.536,56.142,172.85
			c14.604,21.201,30.958,39.489,47.296,52.888C130.874,318.222,148.665,330,165,330c16.335,0,34.125-11.778,46.173-21.659
			c16.338-13.399,32.692-31.687,47.295-52.888c20.881-30.314,55.94-93.079,56.143-172.85
			C314.623,77.875,312.405,73.418,308.626,70.576z M233.762,238.435C203.795,281.941,174.19,300,165,300
			c-9.19,0-38.795-18.059-68.763-61.564c-17.254-25.05-45.198-74.494-50.103-137.41c4.563,0.534,9.139,0.803,13.708,0.803
			c30.669,0,60.141-8.844,82.985-24.903C151.7,70.688,159.154,63.607,165,55.994c5.847,7.614,13.299,14.694,22.173,20.932
			c22.844,16.059,52.316,24.903,82.985,24.903c4.568,0,9.144-0.269,13.707-0.803C278.961,163.942,251.017,213.385,233.762,238.435z"
			/>
	</g>
	<g id="XMLID_104_">
		<circle id="XMLID_105_" cx="165" cy="131.614" r="36.615"/>
	</g>
	<g id="XMLID_106_">
		<path id="XMLID_107_" d="M165,168.229c-31.455,0-56.955,25.498-56.955,56.956h113.91C221.955,193.727,196.455,168.229,165,168.229
			z"/>
	</g>
</g>
</svg>