<?xml version="1.0" encoding="iso-8859-1"?>
<!-- Uploaded to: SVG Repo, www.svgrepo.com, Generator: SVG Repo Mixer Tools -->
<svg fill="#000000" height="800px" width="800px" version="1.1" id="Capa_1" xmlns="http://www.w3.org/2000/svg" xmlns:xlink="http://www.w3.org/1999/xlink" 
	 viewBox="0 0 488.5 488.5" xml:space="preserve">
<g>
	<path d="M370.8,166.8c-11.8,0-21.3,9.6-21.3,21.3v5.7c-16.1-3-28.2-17-28.2-33.9c0-2.9,0.4-5.7,1-8.4H69.1c0.4,2.1,0.6,4.2,0.6,6.3
		c0,19.1-15.5,34.5-34.5,34.5c-2.1,0-4.1-0.2-6.1-0.5v104.8c2-0.4,4-0.5,6.1-0.5c19.1,0,34.5,15.4,34.5,34.5c0,2.2-0.2,4.3-0.6,6.3
		h212l-0.1,12.4v13.4c0,1.1,0.2,2.3,0.3,3.4H34.1C15.3,366.1,0,350.8,0,332V156.5c0-18.8,15.3-34.1,34.1-34.1h325.2
		c18.8,0,34.1,15.3,34.1,34.1v10.3L370.8,166.8L370.8,166.8z M415.9,345.9h-45.2c-1.9,0-3.4,1.5-3.4,3.4v13.4c0,1.9,1.5,3.4,3.4,3.4
		h45.2c1.9,0,3.4-1.5,3.4-3.4v-13.5C419.3,347.4,417.8,345.9,415.9,345.9z M415.9,319h-45.2c-1.9,0-3.4,1.5-3.4,3.4v13.4
		c0,1.9,1.5,3.4,3.4,3.4h45.2c1.9,0,3.4-1.5,3.4-3.4v-13.4C419.3,320.5,417.8,319,415.9,319z M415.9,292.2h-45.2
		c-1.9,0-3.4,1.5-3.4,3.4V309c0,1.9,1.5,3.4,3.4,3.4h45.2c1.9,0,3.4-1.5,3.4-3.4v-13.4C419.3,293.7,417.8,292.2,415.9,292.2z
		 M415.9,265.3h-45.2c-1.9,0-3.4,1.5-3.4,3.4v13.4c0,1.9,1.5,3.4,3.4,3.4h45.2c1.9,0,3.4-1.5,3.4-3.4v-13.4
		C419.3,266.8,417.8,265.3,415.9,265.3z M415.9,238.5h-45.2c-1.9,0-3.4,1.5-3.4,3.4v13.3c0,1.9,1.5,3.4,3.4,3.4h45.2
		c1.9,0,3.4-1.5,3.4-3.4v-13.4C419.3,240,417.8,238.5,415.9,238.5z M415.9,211.6h-45.2c-1.9,0-3.4,1.5-3.4,3.4v13.4
		c0,1.9,1.5,3.4,3.4,3.4h45.2c1.9,0,3.4-1.5,3.4-3.4V215C419.3,213.1,417.8,211.6,415.9,211.6z M415.9,184.8h-45.2
		c-1.9,0-3.4,1.5-3.4,3.4v13.4c0,1.9,1.5,3.4,3.4,3.4h45.2c1.9,0,3.4-1.5,3.4-3.4v-13.4C419.3,186.3,417.8,184.8,415.9,184.8z
		 M485.1,345.9h-45.2c-1.9,0-3.4,1.5-3.4,3.4v13.4c0,1.9,1.5,3.4,3.4,3.4h45.2c1.9,0,3.4-1.5,3.4-3.4v-13.5
		C488.4,347.4,486.9,345.9,485.1,345.9z M485.1,319h-45.2c-1.9,0-3.4,1.5-3.4,3.4v13.4c0,1.9,1.5,3.4,3.4,3.4h45.2
		c1.9,0,3.4-1.5,3.4-3.4v-13.4C488.4,320.5,486.9,319,485.1,319z M485.1,292.2h-45.2c-1.9,0-3.4,1.5-3.4,3.4V309
		c0,1.9,1.5,3.4,3.4,3.4h45.2c1.9,0,3.4-1.5,3.4-3.4v-13.4C488.4,293.7,486.9,292.2,485.1,292.2z M346.8,345.9h-45.2
		c-1.9,0-3.4,1.5-3.4,3.4v13.4c0,1.9,1.5,3.4,3.4,3.4h45.2c1.9,0,3.4-1.5,3.4-3.4v-13.5C350.2,347.4,348.7,345.9,346.8,345.9z
		 M346.8,319h-45.2c-1.9,0-3.4,1.5-3.4,3.4v13.4c0,1.9,1.5,3.4,3.4,3.4h45.2c1.9,0,3.4-1.5,3.4-3.4v-13.4
		C350.2,320.5,348.7,319,346.8,319z M346.8,292.2h-45.2c-1.9,0-3.4,1.5-3.4,3.4V309c0,1.9,1.5,3.4,3.4,3.4h45.2
		c1.9,0,3.4-1.5,3.4-3.4v-13.4C350.2,293.7,348.7,292.2,346.8,292.2z M346.8,265.3h-45.2c-1.9,0-3.4,1.5-3.4,3.4v13.4
		c0,1.9,1.5,3.4,3.4,3.4h45.2c1.9,0,3.4-1.5,3.4-3.4v-13.4C350.2,266.8,348.7,265.3,346.8,265.3z M346.8,238.5h-45.2
		c-1.9,0-3.4,1.5-3.4,3.4v13.3c0,1.9,1.5,3.4,3.4,3.4h45.2c1.9,0,3.4-1.5,3.4-3.4v-13.4C350.2,240,348.7,238.5,346.8,238.5z
		 M256.8,278.9l0.7,3.8c1.1,5.8-3.2,11.2-9,11.5l-3.8,0.2c-4.2,0.2-7.7,3.1-8.8,7.2l-1,3.7c-1.5,5.7-7.7,8.7-13.1,6.4l-3.5-1.5
		c-3.9-1.6-8.3-0.5-11.1,2.6l-2.5,2.9c-3.8,4.4-10.7,4.5-14.6,0.1l-2.6-2.9c-2.8-3.1-7.3-4.1-11.1-2.4l-3.5,1.5
		c-5.4,2.3-11.6-0.6-13.2-6.2l-1.1-3.7c-1.2-4-4.8-6.9-9-7l-3.8-0.2c-5.9-0.2-10.2-5.6-9.2-11.4l0.6-3.8c0.7-4.1-1.3-8.2-5-10.2
		l-3.4-1.8c-5.2-2.8-6.7-9.4-3.4-14.2l2.2-3.1c2.4-3.4,2.4-8-0.1-11.4l-2.3-3.1c-3.5-4.7-2-11.4,3.1-14.3l3.4-1.9
		c3.7-2,5.6-6.2,4.9-10.3l-0.7-3.8c-1.1-5.8,3.2-11.2,9-11.5l3.8-0.2c4.2-0.2,7.7-3.1,8.8-7.2l1-3.7c1.5-5.7,7.7-8.7,13.1-6.4
		l3.5,1.5c3.9,1.6,8.3,0.5,11.1-2.6l2.5-2.9c3.8-4.4,10.7-4.5,14.6-0.1l2.6,2.9c2.8,3.1,7.3,4.1,11.1,2.4l3.5-1.5
		c5.4-2.3,11.6,0.6,13.2,6.2l1.1,3.7c1.2,4,4.8,6.9,9,7l3.8,0.2c5.9,0.3,10.2,5.6,9.2,11.4l-0.6,3.8c-0.7,4.1,1.3,8.2,5,10.2
		l3.4,1.8c5.2,2.8,6.7,9.4,3.4,14.2l-2.2,3.1c-2.4,3.4-2.4,8,0.1,11.4l2.3,3.1c3.5,4.7,2,11.4-3.1,14.3l-3.4,1.9
		C258,270.6,256.1,274.8,256.8,278.9z M221.8,228.1c-0.3-5.2-2-9.6-5-13.1c-3.1-3.7-7.3-6-12.5-7v-9c0-1.1-0.9-2-2-2h-7.2
		c-1.1,0-2,0.9-2,2v8.7c-5.5,0.8-10,2.8-13.4,6.1c-3.8,3.6-5.7,8.2-5.7,13.8c0,6.2,1.8,10.9,5.3,14.1c3.6,3.2,9.2,6.4,17.1,9.5
		c3.2,1.4,5.4,2.8,6.7,4.2c1.3,1.4,1.9,3.5,1.9,6.1c0,2.3-0.6,4.1-1.8,5.5s-3,2.1-5.4,2.1c-2.8,0-5.2-0.9-7-2.7
		c-1.5-1.5-2.3-3.7-2.6-6.8c-0.1-1.2-1.2-2.1-2.4-2l-11.9,0.2c-1.3,0-2.4,1.1-2.3,2.4c0.3,6.3,2.3,11.2,6.1,14.6
		c4.1,3.7,9.2,5.9,15.3,6.6v8.1c0,1.1,0.9,2,2,2h7.2c1.1,0,2-0.9,2-2v-8.4c4.9-0.9,8.9-2.8,12-5.8c3.6-3.5,5.4-8.1,5.4-13.9
		c0-6.1-1.8-10.7-5.4-14c-3.6-3.3-9.3-6.5-16.9-9.8c-3.3-1.5-5.6-2.9-6.8-4.3c-1.2-1.4-1.8-3.3-1.8-5.6c0-2.3,0.6-4.1,1.7-5.6
		c1.1-1.5,2.9-2.2,5.2-2.2s4.2,0.9,5.6,2.7c1.1,1.4,1.8,3.4,2,6c0.1,1.2,1.2,2,2.4,2l11.9-0.2C220.8,230.4,221.8,229.3,221.8,228.1z
		 M67.4,244.2c0,11.4,9.3,20.7,20.7,20.7s20.7-9.3,20.7-20.7c0-11.4-9.3-20.7-20.7-20.7S67.4,232.8,67.4,244.2z"/>
</g>
</svg>